<?xml version="1.0" standalone="no"?>
<!DOCTYPE svg PUBLIC "-//W3C//DTD SVG 20010904//EN"
 "http://www.w3.org/TR/2001/REC-SVG-20010904/DTD/svg10.dtd">
<svg version="1.0" xmlns="http://www.w3.org/2000/svg"
 width="2100.000000pt" height="1500.000000pt" viewBox="0 0 4000.000000 1500.000000"
 preserveAspectRatio="xMidYMid meet">

<g transform="translate(0.000000,1500.000000) scale(0.100000,-0.100000)"
fill="#000000" stroke="none">
<path d="M10909 10986 c-2 -3 -122 -9 -266 -15 -179 -7 -296 -17 -365 -30
-153 -29 -280 -49 -397 -61 -57 -6 -115 -16 -130 -22 -27 -12 -360 -25 -350
-14 3 3 19 8 35 11 165 28 277 52 268 57 -5 4 -102 -9 -214 -28 -113 -19 -230
-37 -260 -39 -30 -3 -95 -9 -145 -15 -49 -5 -155 -15 -235 -20 -147 -10 -395
-46 -505 -73 -33 -8 -94 -18 -135 -21 -41 -4 -91 -12 -110 -18 -67 -21 -245
-91 -291 -114 -49 -24 -177 -54 -233 -54 -19 0 -36 -5 -38 -10 -5 -15 -40 -21
-149 -29 -83 -5 -101 -10 -137 -34 -22 -16 -45 -26 -50 -23 -4 3 -22 -3 -38
-13 -16 -10 -47 -24 -69 -31 -22 -7 -44 -16 -50 -20 -5 -4 -34 -10 -64 -13
-29 -4 -58 -10 -65 -15 -6 -5 -46 -21 -89 -36 -43 -14 -106 -40 -139 -57 -67
-34 -141 -59 -174 -59 -11 0 -29 -9 -40 -21 -10 -11 -26 -18 -36 -16 -9 3 -16
0 -15 -6 1 -6 -9 -13 -23 -15 -14 -2 -29 -8 -35 -13 -5 -5 -17 -9 -27 -9 -10
0 -32 -9 -50 -20 -36 -22 -53 -26 -43 -10 3 6 -1 10 -9 10 -23 0 -147 -51
-142 -59 2 -3 -7 -7 -20 -7 -27 -2 -270 -117 -296 -141 -10 -9 -18 -13 -18 -9
0 4 -31 -9 -69 -30 -39 -21 -68 -41 -65 -46 3 -4 -2 -5 -10 -2 -10 4 -16 1
-16 -7 0 -7 -3 -9 -6 -6 -4 3 -16 0 -28 -8 -11 -8 -26 -15 -34 -15 -21 0 -83
-46 -74 -55 4 -5 2 -5 -4 -2 -12 7 -26 -3 -252 -171 -90 -67 -150 -118 -146
-124 4 -7 2 -8 -4 -4 -13 8 -92 -60 -89 -77 1 -6 -5 -11 -14 -12 -18 0 -159
-137 -159 -154 0 -8 -5 -9 -19 -1 -12 6 -17 17 -14 28 2 11 -37 100 -96 216
-88 172 -102 195 -110 174 -5 -13 -92 -192 -193 -398 -102 -206 -188 -382
-191 -391 -5 -17 14 -52 107 -199 30 -47 67 -107 82 -135 15 -27 39 -68 54
-90 64 -93 166 -257 219 -352 23 -39 45 -74 50 -77 5 -3 23 -31 41 -62 17 -31
36 -62 41 -68 6 -6 24 -33 40 -61 16 -27 47 -77 69 -110 21 -33 50 -80 64
-105 13 -25 48 -82 78 -126 29 -45 61 -96 71 -114 l18 -33 53 84 c29 46 103
160 166 252 95 142 110 170 98 180 -8 7 -30 48 -48 92 -80 190 -214 422 -294
508 -20 21 -36 42 -36 47 0 4 19 18 43 29 23 12 57 35 76 51 l35 29 -26 24
c-24 22 -104 44 -116 32 -3 -3 2 -5 12 -5 27 0 96 -39 96 -54 0 -7 -7 -19 -15
-26 -13 -11 -20 -9 -39 9 -33 31 -84 36 -166 16 -58 -14 -74 -22 -83 -43 -10
-21 -7 -32 17 -76 16 -28 91 -161 166 -296 75 -135 163 -292 195 -349 l58
-104 -23 -19 c-26 -21 -64 -32 -84 -25 -12 5 -146 232 -411 702 -59 105 -131
231 -160 280 -174 301 -224 396 -218 412 12 30 71 83 86 77 8 -3 27 -29 42
-57 16 -29 54 -97 85 -152 31 -55 70 -125 87 -155 70 -127 74 -132 93 -115 9
8 22 15 29 15 7 0 9 5 5 12 -5 8 -2 9 9 5 10 -3 17 -2 17 3 0 6 4 10 10 10 5
0 33 11 62 24 124 56 344 88 383 56 8 -7 18 -9 24 -6 5 3 12 -1 15 -9 19 -50
-137 -248 -225 -287 -16 -7 -29 -15 -29 -18 0 -3 27 -38 59 -78 71 -89 172
-265 243 -424 57 -126 70 -138 132 -122 54 13 48 66 -29 269 -86 227 -108 309
-109 404 -1 99 10 114 64 87 l34 -16 66 63 c36 36 80 77 99 93 18 16 55 61 81
99 56 83 130 154 226 217 68 45 176 102 244 128 19 8 37 16 40 19 3 3 40 23
83 44 43 20 91 53 108 71 16 19 43 37 59 41 15 3 30 12 33 19 3 7 24 18 48 26
24 7 49 17 54 21 6 3 24 9 40 12 94 18 133 31 218 72 51 25 107 45 124 45 34
0 108 20 198 55 89 34 93 35 180 51 44 8 125 23 180 34 55 11 138 26 185 34
47 8 112 22 145 31 71 21 162 46 265 74 42 11 102 32 135 47 86 38 152 55 330
84 65 11 196 22 290 26 118 4 182 10 210 21 27 11 86 17 180 20 77 3 214 7
305 10 91 3 170 9 175 13 17 13 118 39 180 45 34 4 229 8 435 10 206 2 389 3
405 3 17 1 102 1 190 2 88 1 171 2 185 1 143 -5 476 1 478 9 2 6 9 7 15 3 21
-13 498 -16 602 -4 39 5 73 6 77 4 4 -2 45 -6 90 -9 46 -3 109 -12 141 -20 32
-7 70 -11 83 -8 13 3 30 1 37 -4 7 -6 58 -13 112 -16 55 -3 116 -9 136 -14 21
-5 43 -6 50 -1 12 7 12 9 1 9 -8 0 -12 5 -10 12 5 15 45 14 178 -6 14 -2 45
-7 70 -10 25 -3 86 -11 135 -19 50 -8 116 -15 149 -16 32 -1 66 -7 77 -14 14
-9 21 -9 31 1 9 9 9 12 -4 12 -13 0 -28 19 -28 35 0 2 15 -1 33 -6 17 -5 64
-16 102 -24 143 -29 301 -64 320 -70 15 -5 16 -4 5 3 -13 8 -95 36 -186 63
-17 5 -41 9 -55 9 -13 0 -37 7 -52 15 -15 8 -35 11 -44 8 -11 -4 -14 -2 -11 8
7 19 101 14 161 -10 15 -6 31 -10 35 -9 4 2 29 -4 56 -11 38 -11 55 -12 81 -2
26 9 38 8 61 -4 16 -8 49 -17 74 -21 25 -3 72 -15 105 -26 61 -20 142 -38 183
-41 12 -1 22 -5 22 -9 0 -4 26 -12 58 -18 31 -6 93 -22 137 -34 44 -13 112
-31 150 -41 39 -10 90 -27 115 -38 25 -10 59 -20 75 -22 17 -2 103 -33 193
-69 89 -36 170 -63 180 -60 14 5 14 4 3 -4 -12 -8 -4 -15 35 -34 27 -13 51
-26 54 -29 8 -10 83 -46 141 -69 84 -33 138 -60 158 -76 15 -14 105 -55 151
-70 36 -12 -177 123 -217 138 -18 7 -33 16 -33 21 0 6 -8 16 -17 24 -16 13
-16 13 5 3 13 -6 31 -10 40 -7 24 5 -202 114 -378 181 -215 84 -250 100 -241
115 7 10 24 7 77 -14 75 -28 96 -37 223 -85 45 -17 107 -42 136 -56 30 -13 56
-24 60 -24 19 0 339 -166 450 -233 71 -44 133 -81 138 -84 4 -2 7 -2 7 0 0 2
-47 35 -105 72 -58 38 -105 72 -105 76 0 3 10 9 22 13 23 5 50 -6 148 -62 25
-14 41 -20 35 -14 -18 20 -247 143 -433 234 -101 49 -186 96 -189 104 -3 7 -9
14 -15 14 -5 0 -27 9 -50 20 -22 11 -45 17 -50 13 -6 -3 -13 -2 -17 3 -12 18
-51 34 -66 28 -8 -3 -15 -2 -15 3 0 5 -15 15 -34 21 -19 7 -37 19 -40 27 -3 8
-14 15 -25 15 -11 0 -35 6 -53 14 -18 8 -64 26 -103 41 -38 15 -77 30 -85 35
-9 4 -31 11 -50 15 -19 4 -41 12 -47 17 -7 6 -70 25 -140 43 -206 54 -357 95
-378 105 -11 5 -31 11 -45 14 -71 14 -94 23 -98 35 -4 11 4 13 34 8 55 -8 96
-17 105 -22 4 -3 35 -11 70 -19 147 -32 509 -139 644 -191 33 -12 121 -43 195
-68 74 -25 166 -59 204 -77 38 -17 71 -28 74 -26 5 6 -83 46 -141 65 -20 7
-37 19 -37 27 0 18 21 13 155 -36 141 -53 143 -53 115 -36 -51 29 -420 174
-510 200 -99 29 -239 82 -254 97 -18 17 3 21 41 8 21 -7 43 -13 48 -14 6 -1
17 -4 25 -7 8 -4 92 -32 185 -64 94 -31 183 -63 198 -71 16 -8 31 -12 34 -9 6
5 0 8 -107 52 -67 27 -109 43 -360 134 -168 61 -190 70 -190 83 0 15 56 0 235
-64 94 -34 185 -64 203 -66 18 -3 35 -9 38 -14 3 -5 13 -9 22 -9 10 0 67 -20
127 -46 61 -25 139 -56 175 -70 36 -14 74 -30 85 -35 41 -18 81 -31 110 -35
19 -3 2 8 -45 30 -119 54 -130 60 -130 74 0 8 9 10 28 6 41 -9 -57 38 -188 89
-199 77 -216 86 -191 101 9 6 108 -30 126 -46 5 -4 19 -8 31 -8 13 0 25 -4 29
-9 3 -5 20 -13 37 -17 18 -3 39 -10 48 -15 22 -11 96 -44 170 -74 36 -15 74
-34 85 -41 25 -18 41 -18 26 0 -6 7 -62 35 -124 62 -61 26 -116 51 -122 55
-28 20 -310 128 -313 119 -6 -16 -22 -12 -22 5 0 8 -9 15 -20 15 -11 0 -20 3
-20 8 0 4 -15 12 -32 19 -103 36 -428 145 -517 173 -74 24 -105 38 -108 51 -4
12 -24 23 -62 34 -31 8 -72 20 -93 26 -20 7 -49 9 -65 5 -20 -5 -24 -4 -13 3
13 9 13 10 0 14 -14 5 -119 28 -150 33 -8 2 -23 7 -35 13 -11 6 -45 18 -75 27
-52 16 -85 22 -220 43 -30 5 -86 16 -125 24 -38 9 -110 21 -159 27 -50 6 -94
14 -98 16 -5 3 -48 12 -96 19 -171 28 -276 46 -283 51 -4 2 -34 7 -66 10 -32
3 -62 10 -68 16 -7 7 -2 9 17 6 15 -3 25 -1 22 3 -7 12 -54 11 -54 -1 0 -14
-27 -12 -33 3 -4 10 -6 10 -6 0 -1 -18 -31 -16 -31 2 0 18 -16 20 -23 3 -4 -9
-8 -10 -14 -2 -22 29 -76 44 -288 79 -49 9 -103 19 -120 25 -16 5 -82 12 -145
15 -63 4 -124 9 -135 11 -55 10 -407 16 -413 7 -4 -5 -24 -13 -45 -16 -31 -5
-38 -3 -33 8 5 13 -43 15 -348 15 -194 0 -355 -2 -357 -4z m851 -16 c0 -5 -13
-10 -30 -10 -16 0 -30 5 -30 10 0 6 14 10 30 10 17 0 30 -4 30 -10z m38 -8 c2
-7 -3 -12 -12 -12 -9 0 -16 7 -16 16 0 17 22 14 28 -4z m52 -8 c0 -2 -9 -4
-20 -4 -11 0 -20 4 -20 9 0 5 9 7 20 4 11 -3 20 -7 20 -9z m45 -4 c3 -5 -3
-10 -14 -10 -12 0 -21 5 -21 10 0 6 6 10 14 10 8 0 18 -4 21 -10z m65 -12 c0
-6 -7 -7 -16 -4 -9 3 -20 6 -25 6 -5 0 -9 4 -9 9 0 4 11 6 25 3 14 -2 25 -9
25 -14z m365 -23 c99 -9 135 -16 135 -27 0 -5 -12 -7 -27 -4 -16 4 -53 9 -83
12 -30 3 -64 7 -75 9 -11 1 -30 3 -42 4 -13 0 -23 6 -23 11 0 6 10 8 23 6 12
-3 54 -8 92 -11z m224 -31 c2 -2 2 -6 0 -9 -8 -8 -79 7 -79 17 0 8 69 1 79 -8z
m121 -15 c9 -5 0 -7 -25 -5 -22 2 -50 4 -62 5 -13 0 -23 5 -23 11 0 11 86 2
110 -11z m50 -9 c0 -5 -7 -10 -15 -10 -8 0 -15 5 -15 10 0 6 7 10 15 10 8 0
15 -4 15 -10z m50 -10 c0 -13 -11 -13 -30 0 -12 8 -11 10 8 10 12 0 22 -4 22
-10z m-1035 -170 c3 -5 2 -10 -4 -10 -5 0 -13 5 -16 10 -3 6 -2 10 4 10 5 0
13 -4 16 -10z m85 -10 c0 -5 -7 -10 -16 -10 -8 0 -12 5 -9 10 3 6 10 10 16 10
5 0 9 -4 9 -10z m45 -10 c3 -5 1 -10 -4 -10 -6 0 -11 5 -11 10 0 6 2 10 4 10
3 0 8 -4 11 -10z m60 -10 c3 -5 -1 -10 -9 -10 -9 0 -16 5 -16 10 0 6 4 10 9
10 6 0 13 -4 16 -10z m115 -30 c13 -8 13 -10 -2 -10 -9 0 -20 5 -23 10 -8 13
5 13 25 0z m190 -50 c12 -8 11 -10 -7 -10 -13 0 -23 5 -23 10 0 13 11 13 30 0z
m60 -20 c0 -5 -4 -10 -9 -10 -6 0 -13 5 -16 10 -3 6 1 10 9 10 9 0 16 -4 16
-10z m250 -90 c8 -5 12 -12 9 -15 -8 -8 -39 5 -39 16 0 11 11 11 30 -1z m2229
-107 c2 -2 -3 -3 -11 -3 -9 0 -19 7 -22 16 -6 15 -4 15 11 3 10 -7 20 -15 22
-16z m-1111 -43 c16 0 32 -3 36 -7 4 -5 17 -9 29 -10 24 -2 130 -25 192 -41
271 -71 305 -83 305 -102 0 -16 -21 -13 -150 24 -52 15 -184 48 -385 97 -79
19 -106 25 -137 28 -5 1 -8 5 -8 10 0 13 51 19 72 9 9 -4 30 -8 46 -8z m1242
5 c33 -19 10 -19 -26 0 -16 8 -22 15 -14 15 8 -1 26 -7 40 -15z m-3107 -51
c40 -9 83 -22 97 -30 l25 -13 -35 0 c-60 0 -180 33 -180 50 0 12 10 11 93 -7z
m1817 6 c18 -12 2 -12 -25 0 -13 6 -15 9 -5 9 8 0 22 -4 30 -9z m1417 4 c-3
-3 -12 -4 -19 -1 -8 3 -5 6 6 6 11 1 17 -2 13 -5z m-1350 -20 c-3 -3 -12 -4
-19 -1 -8 3 -5 6 6 6 11 1 17 -2 13 -5z m1403 -4 c8 -5 11 -10 5 -10 -5 0 -17
5 -25 10 -8 5 -10 10 -5 10 6 0 17 -5 25 -10z m-1229 -48 c-7 -2 -18 1 -23 6
-8 8 -4 9 13 5 13 -4 18 -8 10 -11z m74 -12 c13 -6 15 -9 5 -9 -8 0 -22 4 -30
9 -18 12 -2 12 25 0z m104 -26 c2 -2 -7 -4 -22 -4 -14 0 -29 5 -32 10 -6 10
42 4 54 -6z m808 -10 c-3 -3 -12 -4 -19 -1 -8 3 -5 6 6 6 11 1 17 -2 13 -5z
m-723 -13 c4 -5 -3 -7 -14 -4 -23 6 -26 13 -6 13 8 0 17 -4 20 -9z m783 -7
c-3 -3 -12 -4 -19 -1 -8 3 -5 6 6 6 11 1 17 -2 13 -5z m-2807 -13 c0 -6 -4
-13 -10 -16 -5 -3 -10 1 -10 9 0 9 5 16 10 16 6 0 10 -4 10 -9z m2247 3 c-3
-3 -12 -4 -19 -1 -8 3 -5 6 6 6 11 1 17 -2 13 -5z m930 0 c-3 -3 -12 -4 -19
-1 -8 3 -5 6 6 6 11 1 17 -2 13 -5z m-2967 -24 c0 -5 -5 -10 -11 -10 -5 0 -7
5 -4 10 3 6 8 10 11 10 2 0 4 -4 4 -10z m3105 -30 c142 -57 170 -69 158 -70
-7 0 -27 6 -45 14 -18 8 -58 24 -88 36 -65 25 -86 34 -120 49 l-25 11 25 -6
c14 -3 57 -18 95 -34z m-3405 20 c12 -8 11 -10 -7 -10 -13 0 -23 5 -23 10 0
13 11 13 30 0z m210 0 c0 -5 -2 -10 -4 -10 -3 0 -8 5 -11 10 -3 6 -1 10 4 10
6 0 11 -4 11 -10z m832 -12 c-7 -7 -12 -8 -12 -2 0 14 12 26 19 19 2 -3 -1
-11 -7 -17z m1468 2 c18 -12 2 -12 -25 0 -13 6 -15 9 -5 9 8 0 22 -4 30 -9z
m-1935 -18 c-3 -3 -11 0 -18 7 -9 10 -8 11 6 5 10 -3 15 -9 12 -12z m2386 -7
c19 -8 27 -14 19 -14 -14 0 -72 28 -59 29 4 0 22 -7 40 -15z m-2071 -15 c0 -5
-4 -10 -10 -10 -5 0 -10 5 -10 10 0 6 5 10 10 10 6 0 10 -4 10 -10z m357 -6
c-3 -3 -12 -4 -19 -1 -8 3 -5 6 6 6 11 1 17 -2 13 -5z m53 -10 c0 -2 -9 -4
-20 -4 -11 0 -20 4 -20 9 0 5 9 7 20 4 11 -3 20 -7 20 -9z m600 0 c0 -2 -7 -4
-15 -4 -8 0 -15 4 -15 10 0 5 7 7 15 4 8 -4 15 -8 15 -10z m757 10 c-3 -3 -12
-4 -19 -1 -8 3 -5 6 6 6 11 1 17 -2 13 -5z m78 -24 c3 -5 2 -10 -4 -10 -5 0
-13 5 -16 10 -3 6 -2 10 4 10 5 0 13 -4 16 -10z m335 0 c0 -5 -2 -10 -4 -10
-3 0 -8 5 -11 10 -3 6 -1 10 4 10 6 0 11 -4 11 -10z m-1593 -16 c-3 -3 -12 -4
-19 -1 -8 3 -5 6 6 6 11 1 17 -2 13 -5z m1658 -14 c3 -5 2 -10 -4 -10 -5 0
-13 5 -16 10 -3 6 -2 10 4 10 5 0 13 -4 16 -10z m-855 -30 c0 -5 -2 -10 -4
-10 -3 0 -8 5 -11 10 -3 6 -1 10 4 10 6 0 11 -4 11 -10z m185 -40 c3 -5 -1
-10 -9 -10 -9 0 -16 5 -16 10 0 6 4 10 9 10 6 0 13 -4 16 -10z m620 -20 c3 -6
-1 -7 -9 -4 -18 7 -21 14 -7 14 6 0 13 -4 16 -10z m55 -28 c-7 -3 -19 3 -28
13 -16 15 -15 16 12 4 15 -7 23 -15 16 -17z m-470 -8 c0 -2 -7 -4 -15 -4 -8 0
-15 4 -15 10 0 5 7 7 15 4 8 -4 15 -8 15 -10z m587 -20 c-3 -3 -12 -4 -19 -1
-8 3 -5 6 6 6 11 1 17 -2 13 -5z m-357 -44 c0 -5 -4 -10 -10 -10 -5 0 -10 5
-10 10 0 6 5 10 10 10 6 0 10 -4 10 -10z m315 0 c3 -6 -1 -7 -9 -4 -18 7 -21
14 -7 14 6 0 13 -4 16 -10z m62 -26 c-6 -6 -47 9 -47 17 0 5 11 3 25 -3 14 -6
24 -13 22 -14z m-10 -100 c-3 -3 -12 -4 -19 -1 -8 3 -5 6 6 6 11 1 17 -2 13
-5z m340 -30 c-3 -3 -12 -4 -19 -1 -8 3 -5 6 6 6 11 1 17 -2 13 -5z m118 -30
c20 -8 35 -18 32 -20 -3 -3 -15 0 -27 6 -12 6 -27 9 -34 7 -7 -3 -13 1 -13 9
0 17 -3 17 42 -2z m-209 -25 c36 -18 63 -34 61 -36 -5 -4 -137 57 -137 63 0 8
14 3 76 -27z m305 -42 c-13 -13 -26 -3 -16 12 3 6 11 8 17 5 6 -4 6 -10 -1
-17z m59 -7 c13 -8 13 -10 -2 -10 -9 0 -20 5 -23 10 -8 13 5 13 25 0z m88 -65
c-3 -3 -9 2 -12 12 -6 14 -5 15 5 6 7 -7 10 -15 7 -18z m-10738 7 c0 -14 -39
-46 -47 -39 -3 4 2 16 12 27 19 21 35 26 35 12z m127 -835 c-6 -15 -15 -27
-20 -27 -4 0 0 14 8 31 20 37 30 34 12 -4z m-44 -64 c-22 -33 -103 -121 -103
-111 0 4 14 22 31 40 17 18 42 48 56 66 31 39 40 42 16 5z m40 -45 c-4 -7 -7
-22 -5 -33 l2 -20 -9 20 c-7 18 2 45 16 45 2 0 1 -6 -4 -12z m-49 -13 c-4 -8
-11 -15 -16 -15 -6 0 -5 6 2 15 7 8 14 15 16 15 2 0 1 -7 -2 -15z m54 -91 c2
-20 6 -42 9 -48 4 -7 2 -8 -5 -1 -14 13 -29 100 -16 92 6 -3 11 -22 12 -43z
m-168 20 c-8 -8 -23 -20 -34 -25 -13 -7 -9 -1 9 15 34 29 43 33 25 10z m-38
-70 c45 -51 98 -122 98 -130 0 -4 7 -16 17 -26 9 -10 14 -20 11 -23 -3 -3 -28
27 -56 67 -29 40 -66 90 -83 111 -39 47 -29 49 13 1z m228 -40 c0 -8 -4 -12
-10 -9 -5 3 -10 10 -10 16 0 5 5 9 10 9 6 0 10 -7 10 -16z m20 -76 c0 -19 -16
-5 -17 14 -2 18 0 20 7 8 5 -8 10 -18 10 -22z m33 -98 c3 -11 1 -20 -4 -20 -5
0 -9 4 -9 9 0 5 -3 17 -7 27 -4 11 -3 15 4 11 6 -4 13 -16 16 -27z m-133 -1
c0 -6 -4 -7 -10 -4 -5 3 -10 11 -10 16 0 6 5 7 10 4 6 -3 10 -11 10 -16z m18
-44 c-3 -3 -9 2 -12 12 -6 14 -5 15 5 6 7 -7 10 -15 7 -18z m29 -42 c18 -37
11 -39 -11 -3 -9 17 -14 30 -9 30 4 0 14 -12 20 -27z m128 -263 c3 -5 1 -10
-4 -10 -6 0 -11 5 -11 10 0 6 2 10 4 10 3 0 8 -4 11 -10z"/>
<path d="M9735 10910 c-3 -6 5 -10 19 -10 14 0 28 5 31 10 3 6 -5 10 -19 10
-14 0 -28 -4 -31 -10z"/>
<path d="M12988 10833 c7 -3 16 -2 19 1 4 3 -2 6 -13 5 -11 0 -14 -3 -6 -6z"/>
<path d="M13040 10001 c0 -13 104 -43 123 -35 8 3 18 1 22 -5 3 -6 21 -11 39
-11 17 0 36 -4 42 -9 13 -12 98 -26 91 -14 -3 5 24 -1 61 -13 37 -12 73 -19
81 -16 19 7 -45 32 -67 26 -14 -5 -15 -4 -2 5 8 6 13 11 10 12 -16 5 -100 16
-170 24 -30 3 -62 8 -70 11 -8 3 -40 8 -70 11 -30 2 -62 9 -72 14 -12 6 -18 6
-18 0z"/>
<path d="M15729 9944 c30 -13 56 -23 58 -20 4 4 -92 46 -104 45 -4 0 16 -11
46 -25z"/>
<path d="M13738 9933 c7 -3 16 -2 19 1 4 3 -2 6 -13 5 -11 0 -14 -3 -6 -6z"/>
<path d="M15470 9925 c14 -8 30 -14 35 -14 6 0 -1 6 -15 14 -14 8 -29 14 -35
14 -5 0 1 -6 15 -14z"/>
<path d="M13540 9890 c8 -5 24 -10 34 -10 26 0 18 6 -19 14 -22 5 -26 4 -15
-4z"/>
<path d="M13608 9873 c7 -3 16 -2 19 1 4 3 -2 6 -13 5 -11 0 -14 -3 -6 -6z"/>
<path d="M15607 9769 c7 -7 15 -10 18 -7 3 3 -2 9 -12 12 -14 6 -15 5 -6 -5z"/>
<path d="M15730 9770 c8 -5 20 -10 25 -10 6 0 3 5 -5 10 -8 5 -19 10 -25 10
-5 0 -3 -5 5 -10z"/>
<path d="M15645 9752 c14 -13 132 -66 120 -53 -5 5 -37 22 -70 36 -33 15 -55
22 -50 17z"/>
<path d="M15800 9675 c14 -8 30 -14 35 -14 6 0 -1 6 -15 14 -14 8 -29 14 -35
14 -5 0 1 -6 15 -14z"/>
<path d="M15850 9656 c0 -3 9 -10 20 -16 11 -6 20 -8 20 -6 0 3 -9 10 -20 16
-11 6 -20 8 -20 6z"/>
<path d="M4506 9623 c-6 -14 -5 -15 5 -6 7 7 10 15 7 18 -3 3 -9 -2 -12 -12z"/>
<path d="M16295 9475 c22 -18 86 -53 70 -38 -5 6 -28 20 -50 32 -22 13 -31 15
-20 6z"/>
<path d="M15817 9439 c11 -11 142 -70 153 -69 8 1 -144 79 -154 80 -6 0 -5 -5
1 -11z"/>
<path d="M16200 9367 c0 -3 27 -22 60 -42 83 -50 227 -154 343 -247 53 -43 90
-67 81 -53 -29 44 -484 365 -484 342z"/>
<path d="M15966 9297 c2 -7 21 -22 42 -32 20 -11 40 -24 43 -28 7 -10 89 -48
89 -42 0 3 -19 17 -42 32 -93 58 -137 81 -132 70z"/>
<path d="M16832 9134 c10 -10 20 -16 22 -13 3 3 -5 11 -17 18 -21 13 -21 12
-5 -5z"/>
<path d="M16238 9118 c6 -7 25 -21 44 -32 l33 -19 -35 31 c-35 31 -62 43 -42
20z"/>
<path d="M4480 9013 c12 -21 55 -96 95 -168 137 -244 152 -269 166 -274 11 -3
11 -1 -1 14 -14 17 -66 107 -202 353 -35 61 -67 112 -71 112 -5 0 1 -17 13
-37z"/>
<path d="M16340 9046 c0 -3 9 -10 20 -16 11 -6 20 -8 20 -6 0 3 -9 10 -20 16
-11 6 -20 8 -20 6z"/>
<path d="M16710 8996 c0 -2 8 -10 18 -17 15 -13 16 -12 3 4 -13 16 -21 21 -21
13z"/>
<path d="M16540 8983 c0 -7 37 -43 83 -81 45 -38 104 -90 132 -116 27 -25 55
-46 62 -46 7 0 12 -3 11 -8 -4 -11 81 -86 100 -88 10 -2 2 11 -20 31 -20 19
-38 38 -40 43 -3 8 -174 148 -253 207 -22 16 -48 39 -57 50 -10 11 -17 15 -18
8z"/>
<path d="M17050 8948 c41 -45 50 -53 50 -45 0 2 -21 23 -47 47 l-48 45 45 -47z"/>
<path d="M16751 8958 c2 -2 26 -23 52 -48 27 -25 45 -38 42 -29 -6 17 -78 79
-91 79 -4 0 -5 -1 -3 -2z"/>
<path d="M16770 8856 c0 -2 8 -10 18 -17 15 -13 16 -12 3 4 -13 16 -21 21 -21
13z"/>
<path d="M17150 8856 c0 -2 8 -10 18 -17 15 -13 16 -12 3 4 -13 16 -21 21 -21
13z"/>
<path d="M4121 8823 c-10 -26 -10 -27 4 -9 8 11 15 23 15 28 0 15 -7 8 -19
-19z"/>
<path d="M12330 8741 l0 -59 -41 -16 -41 -17 -50 47 -49 46 -52 -49 c-29 -26
-81 -78 -116 -116 l-65 -67 49 -50 48 -49 -18 -40 -18 -40 -66 -3 -66 -3 0
-160 0 -160 66 -3 66 -3 17 -42 16 -41 -45 -46 c-25 -25 -45 -50 -45 -54 0
-13 212 -226 224 -226 6 0 31 20 56 45 l46 45 42 -16 42 -17 0 -74 0 -73 165
0 165 0 0 73 0 73 41 18 41 18 48 -47 49 -48 39 35 c78 70 182 183 182 198 0
8 -19 33 -41 56 l-42 43 15 38 c15 37 17 38 69 41 107 5 99 -9 99 167 0 176 8
162 -99 167 -52 3 -54 4 -69 41 l-15 38 42 43 c22 23 41 48 41 57 0 8 -49 64
-110 124 l-110 109 -49 -48 -49 -49 -39 15 c-38 16 -38 16 -41 77 l-3 61 -164
0 -165 0 0 -59z m286 -344 c63 -32 96 -70 123 -142 26 -70 27 -120 1 -187 -51
-135 -203 -201 -342 -148 -68 26 -123 81 -148 147 -25 68 -25 128 0 196 24 64
66 107 140 142 70 33 150 30 226 -8z"/>
<path d="M12428 8285 c-59 -33 -85 -123 -53 -185 47 -90 182 -94 235 -7 39 64
14 159 -50 192 -36 19 -97 19 -132 0z"/>
<path d="M12680 8174 c-10 -11 -11 -20 -3 -32 17 -27 38 -20 38 12 0 34 -16
44 -35 20z"/>
<path d="M12613 8034 c-27 -23 -56 -38 -82 -41 -68 -9 -83 -53 -18 -53 70 0
167 67 167 115 0 24 -21 17 -67 -21z"/>
<path d="M16900 8737 c36 -38 88 -87 115 -109 l50 -41 -50 48 c-27 27 -79 76
-115 109 l-65 61 65 -68z"/>
<path d="M17255 8750 c27 -27 51 -50 54 -50 3 0 -17 23 -44 50 -27 28 -51 50
-54 50 -3 0 17 -22 44 -50z"/>
<path d="M4099 8774 c-4 -14 5 -39 30 -77 20 -31 52 -83 72 -114 19 -32 64
-103 98 -158 35 -55 73 -116 86 -135 12 -19 39 -62 61 -95 21 -33 57 -91 79
-128 22 -38 76 -125 120 -193 79 -123 133 -210 195 -309 17 -27 47 -76 68
-107 20 -32 63 -101 96 -153 55 -89 82 -124 55 -72 -10 19 -194 314 -254 407
-23 35 -86 134 -154 242 -20 31 -58 94 -86 138 -56 92 -112 180 -160 255 -39
61 -171 274 -242 390 -28 47 -53 95 -55 108 -3 22 -4 22 -9 1z"/>
<path d="M8375 8686 c-151 -48 -267 -170 -282 -296 -10 -83 26 -142 176 -289
103 -101 131 -134 142 -168 39 -134 -107 -231 -266 -178 -25 9 -50 13 -55 10
-5 -3 -15 -23 -21 -45 -10 -33 -9 -43 5 -65 24 -37 61 -48 141 -42 137 9 249
77 310 189 24 43 30 65 30 118 0 90 -30 137 -181 285 -137 135 -155 167 -135
242 16 58 59 98 122 113 45 11 78 11 174 -2 13 -2 25 8 39 34 37 67 -4 109
-107 107 -29 0 -70 -6 -92 -13z"/>
<path d="M14595 8686 c-151 -48 -267 -170 -282 -296 -10 -83 26 -142 176 -289
103 -101 131 -134 142 -168 39 -134 -107 -231 -266 -178 -25 9 -50 13 -55 10
-5 -3 -15 -23 -21 -45 -10 -33 -9 -43 5 -65 24 -37 61 -48 141 -42 137 9 249
77 310 189 24 43 30 65 30 118 0 90 -30 137 -181 285 -137 135 -155 167 -135
242 16 58 59 98 122 113 45 11 78 11 174 -2 13 -2 25 8 39 34 37 67 -4 109
-107 107 -29 0 -70 -6 -92 -13z"/>
<path d="M11501 8633 c-47 -77 -160 -209 -281 -328 l-102 -100 8 218 c6 201 5
219 -11 237 -11 12 -31 20 -51 20 -35 0 -114 -27 -114 -39 1 -3 7 -33 16 -66
20 -84 28 -366 16 -633 -5 -123 -6 -240 -1 -260 14 -64 59 -78 134 -42 l42 20
-14 53 c-10 33 -17 125 -20 257 l-5 205 82 -80 c45 -44 155 -161 246 -261 172
-190 226 -233 276 -221 27 7 68 62 68 90 0 8 -19 26 -43 40 -51 30 -238 203
-376 348 -56 59 -101 109 -101 111 0 3 81 86 179 184 190 189 210 219 175 254
-11 11 -35 26 -54 34 l-35 14 -34 -55z"/>
<path d="M7007 8663 c-32 -13 -38 -20 -33 -37 29 -99 31 -138 31 -561 l0 -440
263 0 c249 0 264 1 278 19 18 25 18 57 0 101 l-15 35 -43 -16 c-47 -17 -277
-31 -322 -20 l-26 6 1 188 c0 103 4 292 8 421 8 234 4 297 -21 312 -21 13 -79
9 -121 -8z"/>
<path d="M8803 8663 c-24 -8 -43 -19 -43 -23 0 -5 7 -35 15 -67 22 -80 29
-377 17 -646 -10 -218 -5 -282 20 -298 18 -12 55 -11 98 1 61 18 63 20 44 86
-10 38 -18 119 -21 232 l-6 172 318 0 318 0 -7 -225 c-7 -199 -6 -229 8 -250
18 -28 55 -32 116 -15 62 18 63 20 43 86 -16 52 -18 108 -18 495 0 354 -3 439
-14 452 -18 23 -75 21 -128 -2 l-42 -19 16 -49 c10 -30 17 -106 20 -205 l6
-158 -317 0 -316 0 7 199 c5 177 4 203 -11 225 -19 30 -57 33 -123 9z"/>
<path d="M13238 8663 c-43 -17 -44 -20 -22 -88 14 -41 17 -105 18 -365 2 -298
3 -319 24 -382 30 -89 75 -146 142 -180 72 -37 156 -51 260 -45 283 16 408
194 428 607 9 175 0 387 -18 420 -29 54 -74 64 -141 29 -39 -19 -40 -21 -25
-43 58 -90 80 -465 37 -649 -25 -109 -96 -200 -177 -228 -22 -8 -77 -14 -124
-14 -109 0 -170 28 -212 96 -53 85 -61 158 -53 502 6 273 5 311 -10 333 -19
29 -69 32 -127 7z"/>
<path d="M15023 8663 c-24 -8 -43 -19 -43 -23 0 -5 7 -35 15 -67 22 -80 29
-377 17 -646 -10 -218 -5 -282 20 -298 18 -12 55 -11 98 1 61 18 63 20 44 86
-10 38 -18 119 -21 232 l-6 172 318 0 318 0 -7 -225 c-7 -199 -6 -229 8 -250
18 -28 55 -32 116 -15 62 18 63 20 43 86 -16 52 -18 108 -18 495 0 354 -3 439
-14 452 -18 23 -75 21 -128 -2 l-42 -19 16 -49 c10 -30 17 -106 20 -205 l6
-158 -317 0 -316 0 7 199 c5 177 4 203 -11 225 -19 30 -57 33 -123 9z"/>
<path d="M6271 8644 c-17 -14 -31 -30 -31 -34 0 -5 11 -22 25 -38 l25 -30 -61
-133 c-33 -74 -115 -246 -180 -382 -165 -340 -170 -359 -122 -397 20 -15 38
-20 67 -18 l41 3 7 59 c4 32 27 106 51 165 l43 106 200 3 200 2 33 -87 c64
-169 122 -253 174 -253 12 0 39 11 60 25 l37 26 -31 45 c-49 72 -140 268 -264
573 -63 157 -127 304 -140 328 -41 69 -82 81 -134 37z m154 -403 c38 -94 66
-173 63 -176 -3 -3 -71 -4 -151 -3 l-145 3 76 177 c42 97 79 175 82 173 3 -2
37 -80 75 -174z"/>
<path d="M10251 8644 c-17 -14 -31 -30 -31 -34 0 -5 11 -22 25 -38 l25 -30
-61 -133 c-33 -74 -115 -246 -180 -382 -165 -340 -170 -359 -122 -397 20 -15
38 -20 67 -18 l41 3 7 59 c4 32 27 106 51 165 l43 106 200 3 200 2 33 -87 c64
-169 122 -253 174 -253 12 0 39 11 60 25 l37 26 -31 45 c-49 72 -140 268 -264
573 -63 157 -127 304 -140 328 -41 69 -82 81 -134 37z m154 -403 c38 -94 66
-173 63 -176 -3 -3 -71 -4 -151 -3 l-145 3 76 177 c42 97 79 175 82 173 3 -2
37 -80 75 -174z"/>
<path d="M17000 8587 c30 -31 55 -57 57 -57 10 0 -18 32 -61 70 l-51 44 55
-57z"/>
<path d="M5430 8472 c0 -22 7 -74 15 -114 15 -69 27 -107 112 -343 22 -62 36
-120 37 -152 1 -29 2 -53 3 -53 2 0 9 11 18 23 13 21 13 29 2 63 -20 55 -30
114 -16 91 6 -9 12 -25 14 -35 3 -9 9 -33 13 -52 l9 -35 22 48 c13 30 21 69
21 102 0 60 -17 155 -31 170 -5 5 -9 17 -9 27 0 21 -31 88 -41 88 -3 0 -12 15
-19 33 -7 17 -28 54 -47 80 -18 26 -31 52 -28 56 7 12 -14 28 -48 36 -26 7
-27 6 -27 -33z m27 -14 c-3 -8 -6 -5 -6 6 -1 11 2 17 5 13 3 -3 4 -12 1 -19z
m30 -150 c-3 -8 -6 -5 -6 6 -1 11 2 17 5 13 3 -3 4 -12 1 -19z m53 -153 c0 -5
-5 -3 -10 5 -5 8 -10 20 -10 25 0 6 5 3 10 -5 5 -8 10 -19 10 -25z m30 -66 c0
-6 -4 -7 -10 -4 -5 3 -10 11 -10 16 0 6 5 7 10 4 6 -3 10 -11 10 -16z m36 -65
c8 3 12 2 9 -4 -15 -25 -46 -1 -44 33 0 7 5 1 10 -12 6 -15 14 -21 25 -17z"/>
<path d="M4810 8437 c0 -10 429 -769 442 -782 16 -15 0 15 -220 405 -195 348
-222 394 -222 377z"/>
<path d="M17586 8331 c-10 -10 -13 -22 -8 -25 10 -6 52 21 52 35 0 16 -26 10
-44 -10z"/>
<path d="M16585 7704 c3 -10 16 -82 30 -159 57 -321 57 -320 128 -356 53 -27
46 -16 -13 20 -27 17 -50 34 -50 37 0 26 -84 461 -91 468 -4 5 -6 0 -4 -10z"/>
<path d="M16349 7494 c-32 -39 -135 -76 -256 -91 -31 -4 -42 -10 -47 -26 -3
-12 -1 -24 5 -27 5 -4 1 -14 -11 -25 -19 -17 -51 -19 -398 -26 -207 -4 -413
-10 -457 -13 -44 -3 -645 -13 -1335 -21 -690 -9 -1365 -20 -1500 -25 -135 -5
-432 -14 -660 -19 -426 -11 -897 -25 -1355 -42 -143 -5 -375 -10 -515 -10
-140 -1 -307 -5 -370 -9 l-115 -7 125 -3 c69 -2 107 -5 85 -7 -199 -15 -435
-27 -670 -33 l-280 -7 350 -3 c256 -3 320 -6 240 -10 -60 -4 -146 -12 -190
-19 -44 -6 -150 -15 -235 -21 -85 -6 -198 -16 -250 -23 -95 -13 -95 -13 -46
-20 27 -4 83 -8 125 -8 162 -3 -5 -17 -299 -25 -215 -7 -264 -10 -180 -13
l115 -4 -105 -17 -105 -18 150 -1 c83 -1 186 -6 230 -11 44 -6 121 -13 170
-17 62 -5 82 -9 65 -14 -19 -5 -14 -7 23 -8 27 -1 46 -5 43 -10 -26 -41 2137
-54 4999 -30 1253 11 1751 9 1848 -7 35 -6 37 -9 38 -43 l1 -36 12 34 c14 40
38 51 98 47 24 -2 85 -4 136 -4 l92 -2 1 -57 1 -58 12 50 c7 30 17 49 24 47 7
-1 15 5 18 13 8 20 68 19 89 -1 13 -14 29 -16 88 -11 61 5 89 15 192 66 66 33
136 70 155 82 l34 21 -46 24 c-46 23 -46 24 -57 91 -12 72 -51 388 -51 410 0
18 -15 16 -31 -3z"/>
</g>
</svg>
